<mxfile host="app.diagrams.net" modified="2023-11-24T06:04:52.462Z" agent="Mozilla/5.0 (Macintosh; Intel Mac OS X 10.15; rv:109.0) Gecko/20100101 Firefox/119.0" etag="aaqqQ9fPBLq2JEP2-j7O" version="22.1.3" type="google" pages="4">
  <diagram name="Camera API" id="mXQUWdrutM_zCuDut9dK">
    <mxGraphModel grid="1" page="1" gridSize="10" guides="1" tooltips="1" connect="1" arrows="1" fold="1" pageScale="1" pageWidth="1100" pageHeight="850" math="0" shadow="0">
      <root>
        <mxCell id="0" />
        <mxCell id="1" parent="0" />
        <mxCell id="tdlok8c6qRjgLpGQRqnw-1" value="User" style="rounded=1;whiteSpace=wrap;html=1;hachureGap=4;fontFamily=Helvetica;fontSize=20;" vertex="1" parent="1">
          <mxGeometry x="80" y="80" width="120" height="80" as="geometry" />
        </mxCell>
        <mxCell id="tdlok8c6qRjgLpGQRqnw-18" value="" style="edgeStyle=orthogonalEdgeStyle;rounded=0;sketch=1;hachureGap=4;jiggle=2;curveFitting=1;orthogonalLoop=1;jettySize=auto;html=1;fontFamily=Helvetica;fontSize=16;" edge="1" parent="1" source="tdlok8c6qRjgLpGQRqnw-2" target="tdlok8c6qRjgLpGQRqnw-1">
          <mxGeometry relative="1" as="geometry" />
        </mxCell>
        <mxCell id="tdlok8c6qRjgLpGQRqnw-2" value="Mobile App" style="whiteSpace=wrap;html=1;aspect=fixed;hachureGap=4;fontFamily=Helvetica;fontSize=20;" vertex="1" parent="1">
          <mxGeometry x="280" y="80" width="80" height="80" as="geometry" />
        </mxCell>
        <mxCell id="tdlok8c6qRjgLpGQRqnw-3" value="Camera&lt;br&gt;API" style="whiteSpace=wrap;html=1;aspect=fixed;hachureGap=4;fontFamily=Helvetica;fontSize=20;" vertex="1" parent="1">
          <mxGeometry x="440" y="80" width="80" height="80" as="geometry" />
        </mxCell>
        <mxCell id="tdlok8c6qRjgLpGQRqnw-4" value="DB" style="shape=cylinder3;whiteSpace=wrap;html=1;boundedLbl=1;backgroundOutline=1;size=15;hachureGap=4;fontFamily=Helvetica;fontSize=20;" vertex="1" parent="1">
          <mxGeometry x="450" y="270" width="60" height="80" as="geometry" />
        </mxCell>
        <mxCell id="tdlok8c6qRjgLpGQRqnw-7" value="Camera" style="rounded=0;whiteSpace=wrap;html=1;hachureGap=4;fontFamily=Helvetica;fontSize=20;" vertex="1" parent="1">
          <mxGeometry x="601" y="80" width="120" height="80" as="geometry" />
        </mxCell>
        <mxCell id="tdlok8c6qRjgLpGQRqnw-11" value="" style="ellipse;shape=doubleEllipse;whiteSpace=wrap;html=1;aspect=fixed;hachureGap=4;fontFamily=Helvetica;fontSize=20;" vertex="1" parent="1">
          <mxGeometry x="770" y="80" width="80" height="80" as="geometry" />
        </mxCell>
        <mxCell id="tdlok8c6qRjgLpGQRqnw-13" value="" style="shape=mxgraph.signs.animals.snake;html=1;pointerEvents=1;fillColor=#000000;strokeColor=none;verticalLabelPosition=bottom;verticalAlign=top;align=center;hachureGap=4;fontFamily=Helvetica;fontSize=20;" vertex="1" parent="1">
          <mxGeometry x="786" y="96" width="48" height="48" as="geometry" />
        </mxCell>
        <mxCell id="tdlok8c6qRjgLpGQRqnw-14" value="critter" style="text;html=1;strokeColor=none;fillColor=none;align=center;verticalAlign=middle;whiteSpace=wrap;rounded=0;fontSize=20;fontFamily=Helvetica;" vertex="1" parent="1">
          <mxGeometry x="860" y="105" width="60" height="30" as="geometry" />
        </mxCell>
        <mxCell id="tdlok8c6qRjgLpGQRqnw-15" value="" style="endArrow=classic;html=1;rounded=0;hachureGap=4;fontFamily=Helvetica;fontSize=16;strokeWidth=3;" edge="1" parent="1">
          <mxGeometry width="50" height="50" relative="1" as="geometry">
            <mxPoint x="200" y="119.5" as="sourcePoint" />
            <mxPoint x="280" y="119.5" as="targetPoint" />
          </mxGeometry>
        </mxCell>
        <mxCell id="tdlok8c6qRjgLpGQRqnw-17" value="" style="endArrow=classic;startArrow=classic;html=1;rounded=0;hachureGap=4;fontFamily=Helvetica;fontSize=16;strokeWidth=3;exitX=0.5;exitY=0;exitDx=0;exitDy=0;exitPerimeter=0;" edge="1" parent="1" source="tdlok8c6qRjgLpGQRqnw-4">
          <mxGeometry width="100" height="100" relative="1" as="geometry">
            <mxPoint x="480" y="240" as="sourcePoint" />
            <mxPoint x="479.5" y="160" as="targetPoint" />
          </mxGeometry>
        </mxCell>
        <mxCell id="tdlok8c6qRjgLpGQRqnw-19" value="" style="endArrow=classic;startArrow=classic;html=1;rounded=0;hachureGap=4;fontFamily=Helvetica;fontSize=16;strokeWidth=3;" edge="1" parent="1">
          <mxGeometry width="100" height="100" relative="1" as="geometry">
            <mxPoint x="520.5" y="118" as="sourcePoint" />
            <mxPoint x="600" y="118" as="targetPoint" />
          </mxGeometry>
        </mxCell>
        <mxCell id="tdlok8c6qRjgLpGQRqnw-20" value="" style="endArrow=classic;startArrow=classic;html=1;rounded=0;hachureGap=4;fontFamily=Helvetica;fontSize=16;strokeWidth=3;" edge="1" parent="1">
          <mxGeometry width="100" height="100" relative="1" as="geometry">
            <mxPoint x="360.5" y="118" as="sourcePoint" />
            <mxPoint x="440" y="118" as="targetPoint" />
          </mxGeometry>
        </mxCell>
        <mxCell id="tdlok8c6qRjgLpGQRqnw-21" value="" style="endArrow=classic;startArrow=none;html=1;rounded=0;hachureGap=4;fontFamily=Helvetica;fontSize=16;strokeWidth=3;startFill=0;" edge="1" parent="1">
          <mxGeometry width="100" height="100" relative="1" as="geometry">
            <mxPoint x="720" y="118" as="sourcePoint" />
            <mxPoint x="770" y="118" as="targetPoint" />
          </mxGeometry>
        </mxCell>
        <mxCell id="tdlok8c6qRjgLpGQRqnw-22" value="&lt;div align=&quot;left&quot;&gt;&lt;font style=&quot;font-size: 15px;&quot;&gt;User to interact with camera using the App, &lt;br&gt;on the location, of the camera &lt;/font&gt;&lt;/div&gt;" style="text;strokeColor=none;fillColor=none;html=1;fontSize=20;fontStyle=0;verticalAlign=middle;align=left;fontFamily=Helvetica;" vertex="1" parent="1">
          <mxGeometry x="90" y="200" width="380" height="40" as="geometry" />
        </mxCell>
        <mxCell id="tdlok8c6qRjgLpGQRqnw-23" value="&lt;div align=&quot;left&quot;&gt;&lt;font style=&quot;font-size: 15px;&quot;&gt;Saving the camera setting to DB,&lt;br&gt; against each camera&lt;/font&gt;&lt;br&gt;&lt;/div&gt;" style="text;strokeColor=none;fillColor=none;html=1;fontSize=20;fontStyle=0;verticalAlign=middle;align=center;fontFamily=Helvetica;" vertex="1" parent="1">
          <mxGeometry x="440" y="200" width="330" height="40" as="geometry" />
        </mxCell>
        <mxCell id="tdlok8c6qRjgLpGQRqnw-24" value="Flow: User interacting with camera, using camera API" style="text;strokeColor=none;fillColor=none;html=1;fontSize=20;fontStyle=1;verticalAlign=middle;align=left;fontFamily=Helvetica;" vertex="1" parent="1">
          <mxGeometry x="60" y="10" width="460" height="40" as="geometry" />
        </mxCell>
      </root>
    </mxGraphModel>
  </diagram>
  <diagram name="camera alert to notification" id="2eOSlyx3jGcjz9rZNPv6">
    <mxGraphModel grid="1" page="1" gridSize="10" guides="1" tooltips="1" connect="1" arrows="1" fold="1" pageScale="1" pageWidth="1100" pageHeight="850" math="0" shadow="0">
      <root>
        <mxCell id="8W-atcxTXvZi6l1qLSgQ-0" />
        <mxCell id="8W-atcxTXvZi6l1qLSgQ-1" parent="8W-atcxTXvZi6l1qLSgQ-0" />
        <mxCell id="8W-atcxTXvZi6l1qLSgQ-6" value="DB" style="shape=cylinder3;whiteSpace=wrap;html=1;boundedLbl=1;backgroundOutline=1;size=15;hachureGap=4;fontFamily=Helvetica;fontSize=12;" parent="8W-atcxTXvZi6l1qLSgQ-1" vertex="1">
          <mxGeometry x="290.96" y="270" width="60" height="83" as="geometry" />
        </mxCell>
        <mxCell id="8W-atcxTXvZi6l1qLSgQ-7" value="Camera" style="rounded=0;whiteSpace=wrap;html=1;hachureGap=4;fontFamily=Helvetica;fontSize=12;" parent="8W-atcxTXvZi6l1qLSgQ-1" vertex="1">
          <mxGeometry x="81" y="80" width="120" height="80" as="geometry" />
        </mxCell>
        <mxCell id="8W-atcxTXvZi6l1qLSgQ-8" value="" style="ellipse;shape=doubleEllipse;whiteSpace=wrap;html=1;aspect=fixed;hachureGap=4;fontFamily=Helvetica;fontSize=12;" parent="8W-atcxTXvZi6l1qLSgQ-1" vertex="1">
          <mxGeometry x="100" y="220" width="80" height="80" as="geometry" />
        </mxCell>
        <mxCell id="8W-atcxTXvZi6l1qLSgQ-9" value="" style="shape=mxgraph.signs.animals.snake;html=1;pointerEvents=1;fillColor=#000000;strokeColor=none;verticalLabelPosition=bottom;verticalAlign=top;align=center;hachureGap=4;fontFamily=Helvetica;fontSize=12;" parent="8W-atcxTXvZi6l1qLSgQ-1" vertex="1">
          <mxGeometry x="116" y="236" width="48" height="48" as="geometry" />
        </mxCell>
        <mxCell id="8W-atcxTXvZi6l1qLSgQ-10" value="critter" style="text;html=1;strokeColor=none;fillColor=none;align=center;verticalAlign=middle;whiteSpace=wrap;rounded=0;fontSize=12;fontFamily=Helvetica;" parent="8W-atcxTXvZi6l1qLSgQ-1" vertex="1">
          <mxGeometry x="110" y="302" width="60" height="30" as="geometry" />
        </mxCell>
        <mxCell id="8W-atcxTXvZi6l1qLSgQ-18" value="Flow: Camera sending Alert using Notification API" style="text;strokeColor=none;fillColor=none;html=1;fontSize=12;fontStyle=1;verticalAlign=middle;align=left;fontFamily=Helvetica;" parent="8W-atcxTXvZi6l1qLSgQ-1" vertex="1">
          <mxGeometry x="60" y="10" width="460" height="40" as="geometry" />
        </mxCell>
        <mxCell id="kYodp4eb6J3vims16_vl-8" value="User" style="rounded=1;whiteSpace=wrap;html=1;hachureGap=4;fontFamily=Helvetica;fontSize=12;" vertex="1" parent="8W-atcxTXvZi6l1qLSgQ-1">
          <mxGeometry x="600" y="77" width="120" height="83" as="geometry" />
        </mxCell>
        <mxCell id="kYodp4eb6J3vims16_vl-10" value="Mobile App" style="whiteSpace=wrap;html=1;aspect=fixed;hachureGap=4;fontFamily=Helvetica;fontSize=12;" vertex="1" parent="8W-atcxTXvZi6l1qLSgQ-1">
          <mxGeometry x="440" y="79" width="80" height="83" as="geometry" />
        </mxCell>
        <mxCell id="kYodp4eb6J3vims16_vl-11" value="Notification&lt;br style=&quot;font-size: 12px;&quot;&gt;API" style="whiteSpace=wrap;html=1;aspect=fixed;hachureGap=4;fontFamily=Helvetica;fontSize=12;" vertex="1" parent="8W-atcxTXvZi6l1qLSgQ-1">
          <mxGeometry x="280" y="79" width="81.93" height="85" as="geometry" />
        </mxCell>
        <mxCell id="kYodp4eb6J3vims16_vl-13" value="" style="endArrow=classic;startArrow=classic;html=1;rounded=0;hachureGap=4;fontFamily=Helvetica;fontSize=12;strokeWidth=3;exitX=0.5;exitY=0;exitDx=0;exitDy=0;exitPerimeter=0;" edge="1" parent="8W-atcxTXvZi6l1qLSgQ-1">
          <mxGeometry width="100" height="100" relative="1" as="geometry">
            <mxPoint x="320.96" y="270" as="sourcePoint" />
            <mxPoint x="320.46" y="160" as="targetPoint" />
          </mxGeometry>
        </mxCell>
        <mxCell id="kYodp4eb6J3vims16_vl-14" value="" style="endArrow=classic;startArrow=none;html=1;rounded=0;hachureGap=4;fontFamily=Helvetica;fontSize=12;strokeWidth=3;startFill=0;" edge="1" parent="8W-atcxTXvZi6l1qLSgQ-1">
          <mxGeometry width="100" height="100" relative="1" as="geometry">
            <mxPoint x="360.93" y="119" as="sourcePoint" />
            <mxPoint x="440.43" y="119" as="targetPoint" />
          </mxGeometry>
        </mxCell>
        <mxCell id="kYodp4eb6J3vims16_vl-15" value="&lt;div&gt;Camera sends an alert using the notification API to Mobile application of the user&lt;/div&gt;" style="text;strokeColor=none;fillColor=none;html=1;fontSize=12;fontStyle=0;verticalAlign=middle;align=left;fontFamily=Helvetica;" vertex="1" parent="8W-atcxTXvZi6l1qLSgQ-1">
          <mxGeometry x="120" y="360" width="380" height="43" as="geometry" />
        </mxCell>
        <mxCell id="g3c9fHSR6W69KlRGcvux-0" value="" style="endArrow=classic;startArrow=classic;html=1;rounded=0;hachureGap=4;fontFamily=Helvetica;fontSize=12;strokeWidth=3;exitX=0.5;exitY=-0.187;exitDx=0;exitDy=0;exitPerimeter=0;" edge="1" parent="8W-atcxTXvZi6l1qLSgQ-1" source="8W-atcxTXvZi6l1qLSgQ-9">
          <mxGeometry width="100" height="100" relative="1" as="geometry">
            <mxPoint x="140" y="267" as="sourcePoint" />
            <mxPoint x="139.5" y="157" as="targetPoint" />
          </mxGeometry>
        </mxCell>
        <mxCell id="g3c9fHSR6W69KlRGcvux-4" value="" style="endArrow=classic;startArrow=none;html=1;rounded=0;hachureGap=4;fontFamily=Helvetica;fontSize=12;strokeWidth=3;startFill=0;" edge="1" parent="8W-atcxTXvZi6l1qLSgQ-1">
          <mxGeometry width="100" height="100" relative="1" as="geometry">
            <mxPoint x="520.9300000000001" y="119" as="sourcePoint" />
            <mxPoint x="600.4300000000001" y="119" as="targetPoint" />
          </mxGeometry>
        </mxCell>
        <mxCell id="g3c9fHSR6W69KlRGcvux-5" value="" style="endArrow=classic;startArrow=none;html=1;rounded=0;hachureGap=4;fontFamily=Helvetica;fontSize=12;strokeWidth=3;startFill=0;" edge="1" parent="8W-atcxTXvZi6l1qLSgQ-1">
          <mxGeometry width="100" height="100" relative="1" as="geometry">
            <mxPoint x="200.93" y="119" as="sourcePoint" />
            <mxPoint x="280.43" y="119" as="targetPoint" />
          </mxGeometry>
        </mxCell>
        <mxCell id="g3c9fHSR6W69KlRGcvux-6" value="Sends an&lt;br&gt;&amp;nbsp;Alert" style="text;strokeColor=none;fillColor=none;html=1;fontSize=12;fontStyle=0;verticalAlign=middle;align=center;fontFamily=Helvetica;" vertex="1" parent="8W-atcxTXvZi6l1qLSgQ-1">
          <mxGeometry x="190.96" y="80" width="100" height="40" as="geometry" />
        </mxCell>
        <mxCell id="g3c9fHSR6W69KlRGcvux-7" value="Sends an&lt;br&gt;&amp;nbsp;Alert" style="text;strokeColor=none;fillColor=none;html=1;fontSize=12;fontStyle=0;verticalAlign=middle;align=center;fontFamily=Helvetica;" vertex="1" parent="8W-atcxTXvZi6l1qLSgQ-1">
          <mxGeometry x="350.96000000000004" y="80" width="100" height="40" as="geometry" />
        </mxCell>
      </root>
    </mxGraphModel>
  </diagram>
  <diagram name="Image/Video Retrival" id="_sjY4ciIYMe99wWAIYtd">
    <mxGraphModel grid="1" page="1" gridSize="10" guides="1" tooltips="1" connect="1" arrows="1" fold="1" pageScale="1" pageWidth="1100" pageHeight="850" math="0" shadow="0">
      <root>
        <mxCell id="6RB37TuTvvNSePQRMFjl-0" />
        <mxCell id="6RB37TuTvvNSePQRMFjl-1" parent="6RB37TuTvvNSePQRMFjl-0" />
        <mxCell id="6RB37TuTvvNSePQRMFjl-2" value="User" style="rounded=1;whiteSpace=wrap;html=1;hachureGap=4;fontFamily=Helvetica;fontSize=20;" parent="6RB37TuTvvNSePQRMFjl-1" vertex="1">
          <mxGeometry x="80" y="80" width="120" height="80" as="geometry" />
        </mxCell>
        <mxCell id="6RB37TuTvvNSePQRMFjl-4" value="Mobile App" style="whiteSpace=wrap;html=1;aspect=fixed;hachureGap=4;fontFamily=Helvetica;fontSize=20;" parent="6RB37TuTvvNSePQRMFjl-1" vertex="1">
          <mxGeometry x="280" y="80" width="80" height="80" as="geometry" />
        </mxCell>
        <mxCell id="6RB37TuTvvNSePQRMFjl-5" value="Camera&lt;br&gt;API" style="whiteSpace=wrap;html=1;aspect=fixed;hachureGap=4;fontFamily=Helvetica;fontSize=20;" vertex="1" parent="6RB37TuTvvNSePQRMFjl-1">
          <mxGeometry x="440" y="80" width="80" height="80" as="geometry" />
        </mxCell>
        <mxCell id="6RB37TuTvvNSePQRMFjl-7" value="Camera" style="rounded=0;whiteSpace=wrap;html=1;hachureGap=4;fontFamily=Helvetica;fontSize=20;" parent="6RB37TuTvvNSePQRMFjl-1" vertex="1">
          <mxGeometry x="601" y="80" width="120" height="80" as="geometry" />
        </mxCell>
        <mxCell id="6RB37TuTvvNSePQRMFjl-13" value="" style="endArrow=classic;startArrow=classic;html=1;rounded=0;hachureGap=4;fontFamily=Helvetica;fontSize=16;strokeWidth=3;" parent="6RB37TuTvvNSePQRMFjl-1" edge="1">
          <mxGeometry width="100" height="100" relative="1" as="geometry">
            <mxPoint x="520.5" y="118" as="sourcePoint" />
            <mxPoint x="600" y="118" as="targetPoint" />
          </mxGeometry>
        </mxCell>
        <mxCell id="6RB37TuTvvNSePQRMFjl-14" value="" style="endArrow=classic;startArrow=classic;html=1;rounded=0;hachureGap=4;fontFamily=Helvetica;fontSize=16;strokeWidth=3;" edge="1" parent="6RB37TuTvvNSePQRMFjl-1">
          <mxGeometry width="100" height="100" relative="1" as="geometry">
            <mxPoint x="360.5" y="118" as="sourcePoint" />
            <mxPoint x="440" y="118" as="targetPoint" />
          </mxGeometry>
        </mxCell>
        <mxCell id="6RB37TuTvvNSePQRMFjl-17" value="&lt;div&gt;&lt;font style=&quot;font-size: 15px;&quot;&gt;Saving the images/ raw data to DB&lt;/font&gt;&lt;br&gt;&lt;/div&gt;" style="text;strokeColor=none;fillColor=none;html=1;fontSize=20;fontStyle=0;verticalAlign=middle;align=left;fontFamily=Helvetica;" parent="6RB37TuTvvNSePQRMFjl-1" vertex="1">
          <mxGeometry x="326" y="360" width="330" height="40" as="geometry" />
        </mxCell>
        <mxCell id="6RB37TuTvvNSePQRMFjl-18" value="Flow: Fetching and Storing Images/ Video" style="text;strokeColor=none;fillColor=none;html=1;fontSize=20;fontStyle=1;verticalAlign=middle;align=left;fontFamily=Helvetica;" parent="6RB37TuTvvNSePQRMFjl-1" vertex="1">
          <mxGeometry x="60" y="10" width="460" height="40" as="geometry" />
        </mxCell>
        <mxCell id="N3dr7S51c7bUNHlCAhvO-6" value="&lt;font style=&quot;font-size: 15px;&quot;&gt;Multimedia Module API&lt;br&gt;&lt;/font&gt;" style="whiteSpace=wrap;html=1;aspect=fixed;hachureGap=4;fontFamily=Helvetica;fontSize=20;" vertex="1" parent="6RB37TuTvvNSePQRMFjl-1">
          <mxGeometry x="280" y="240" width="80" height="80" as="geometry" />
        </mxCell>
        <mxCell id="N3dr7S51c7bUNHlCAhvO-7" value="DB" style="shape=cylinder3;whiteSpace=wrap;html=1;boundedLbl=1;backgroundOutline=1;size=15;hachureGap=4;fontFamily=Helvetica;fontSize=20;" vertex="1" parent="6RB37TuTvvNSePQRMFjl-1">
          <mxGeometry x="290" y="430" width="60" height="80" as="geometry" />
        </mxCell>
        <mxCell id="N3dr7S51c7bUNHlCAhvO-8" value="" style="endArrow=classic;startArrow=classic;html=1;rounded=0;hachureGap=4;fontFamily=Helvetica;fontSize=16;strokeWidth=3;exitX=0.5;exitY=0;exitDx=0;exitDy=0;exitPerimeter=0;" edge="1" parent="6RB37TuTvvNSePQRMFjl-1" source="N3dr7S51c7bUNHlCAhvO-7">
          <mxGeometry width="100" height="100" relative="1" as="geometry">
            <mxPoint x="320" y="400" as="sourcePoint" />
            <mxPoint x="319.5" y="320" as="targetPoint" />
          </mxGeometry>
        </mxCell>
        <mxCell id="N3dr7S51c7bUNHlCAhvO-9" value="" style="endArrow=classic;startArrow=classic;html=1;rounded=0;hachureGap=4;fontFamily=Helvetica;fontSize=16;strokeWidth=3;" edge="1" parent="6RB37TuTvvNSePQRMFjl-1">
          <mxGeometry width="100" height="100" relative="1" as="geometry">
            <mxPoint x="320" y="240" as="sourcePoint" />
            <mxPoint x="319.5" y="160" as="targetPoint" />
          </mxGeometry>
        </mxCell>
        <mxCell id="N3dr7S51c7bUNHlCAhvO-10" value="&lt;div&gt;&lt;font style=&quot;font-size: 15px;&quot;&gt;Fetching the images from the camera using camera API&lt;/font&gt;&lt;br&gt;&lt;/div&gt;" style="text;strokeColor=none;fillColor=none;html=1;fontSize=20;fontStyle=0;verticalAlign=middle;align=left;fontFamily=Helvetica;" vertex="1" parent="6RB37TuTvvNSePQRMFjl-1">
          <mxGeometry x="490" y="160" width="330" height="40" as="geometry" />
        </mxCell>
        <mxCell id="N3dr7S51c7bUNHlCAhvO-11" value="" style="endArrow=classic;startArrow=classic;html=1;rounded=0;hachureGap=4;fontFamily=Helvetica;fontSize=16;strokeWidth=3;" edge="1" parent="6RB37TuTvvNSePQRMFjl-1">
          <mxGeometry width="100" height="100" relative="1" as="geometry">
            <mxPoint x="200.5" y="118" as="sourcePoint" />
            <mxPoint x="280" y="118" as="targetPoint" />
          </mxGeometry>
        </mxCell>
      </root>
    </mxGraphModel>
  </diagram>
  <diagram name="Interaction with 3rd Application" id="Cobepzjaci7jTWoIxjQe">
    <mxGraphModel grid="1" page="1" gridSize="10" guides="1" tooltips="1" connect="1" arrows="1" fold="1" pageScale="1" pageWidth="1100" pageHeight="850" math="0" shadow="0">
      <root>
        <mxCell id="U1rAl8_IukCjqVfFUBV3-0" />
        <mxCell id="U1rAl8_IukCjqVfFUBV3-1" parent="U1rAl8_IukCjqVfFUBV3-0" />
        <mxCell id="QCub0E5qJPQFH9ZA22CE-8" value="" style="whiteSpace=wrap;html=1;aspect=fixed;hachureGap=4;fontFamily=Architects Daughter;fontSource=https%3A%2F%2Ffonts.googleapis.com%2Fcss%3Ffamily%3DArchitects%2BDaughter;fontSize=20;dashed=1;gradientColor=none;" vertex="1" parent="U1rAl8_IukCjqVfFUBV3-1">
          <mxGeometry x="710" y="81" width="269" height="269" as="geometry" />
        </mxCell>
        <mxCell id="U1rAl8_IukCjqVfFUBV3-2" value="User" style="rounded=1;whiteSpace=wrap;html=1;hachureGap=4;fontFamily=Helvetica;fontSize=15;align=center;" parent="U1rAl8_IukCjqVfFUBV3-1" vertex="1">
          <mxGeometry x="80" y="80" width="120" height="80" as="geometry" />
        </mxCell>
        <mxCell id="U1rAl8_IukCjqVfFUBV3-3" value="Mobile App" style="whiteSpace=wrap;html=1;aspect=fixed;hachureGap=4;fontFamily=Helvetica;fontSize=15;align=center;" parent="U1rAl8_IukCjqVfFUBV3-1" vertex="1">
          <mxGeometry x="280" y="80" width="80" height="80" as="geometry" />
        </mxCell>
        <mxCell id="U1rAl8_IukCjqVfFUBV3-4" value="Integration Module API" style="whiteSpace=wrap;html=1;aspect=fixed;hachureGap=4;fontFamily=Helvetica;fontSize=15;align=center;" parent="U1rAl8_IukCjqVfFUBV3-1" vertex="1">
          <mxGeometry x="440" y="80" width="80" height="80" as="geometry" />
        </mxCell>
        <mxCell id="U1rAl8_IukCjqVfFUBV3-6" value="" style="endArrow=none;startArrow=classic;html=1;rounded=0;hachureGap=4;fontFamily=Helvetica;fontSize=15;strokeWidth=3;align=center;endFill=0;exitX=1;exitY=0.5;exitDx=0;exitDy=0;" parent="U1rAl8_IukCjqVfFUBV3-1" edge="1" source="U1rAl8_IukCjqVfFUBV3-4">
          <mxGeometry width="100" height="100" relative="1" as="geometry">
            <mxPoint x="520.5" y="108" as="sourcePoint" />
            <mxPoint x="670" y="120" as="targetPoint" />
          </mxGeometry>
        </mxCell>
        <mxCell id="U1rAl8_IukCjqVfFUBV3-7" value="" style="endArrow=classic;startArrow=classic;html=1;rounded=0;hachureGap=4;fontFamily=Helvetica;fontSize=15;strokeWidth=3;align=center;" parent="U1rAl8_IukCjqVfFUBV3-1" edge="1">
          <mxGeometry width="100" height="100" relative="1" as="geometry">
            <mxPoint x="360.5" y="118" as="sourcePoint" />
            <mxPoint x="440" y="118" as="targetPoint" />
          </mxGeometry>
        </mxCell>
        <mxCell id="U1rAl8_IukCjqVfFUBV3-8" value="&lt;div style=&quot;font-size: 15px;&quot;&gt;&lt;font style=&quot;font-size: 15px;&quot;&gt;Retriving the multimedia data from the DB&lt;/font&gt;&lt;br style=&quot;font-size: 15px;&quot;&gt;&lt;/div&gt;" style="text;strokeColor=none;fillColor=none;html=1;fontSize=15;fontStyle=0;verticalAlign=middle;align=left;fontFamily=Helvetica;" parent="U1rAl8_IukCjqVfFUBV3-1" vertex="1">
          <mxGeometry x="330" y="190" width="260" height="40" as="geometry" />
        </mxCell>
        <mxCell id="U1rAl8_IukCjqVfFUBV3-9" value="Flow: Interaction with 3rd Application" style="text;strokeColor=none;fillColor=none;html=1;fontSize=15;fontStyle=1;verticalAlign=middle;align=left;fontFamily=Helvetica;" parent="U1rAl8_IukCjqVfFUBV3-1" vertex="1">
          <mxGeometry x="60" y="10" width="460" height="40" as="geometry" />
        </mxCell>
        <mxCell id="U1rAl8_IukCjqVfFUBV3-10" value="&lt;font style=&quot;font-size: 15px;&quot;&gt;Multimedia Module API&lt;br style=&quot;font-size: 15px;&quot;&gt;&lt;/font&gt;" style="whiteSpace=wrap;html=1;aspect=fixed;hachureGap=4;fontFamily=Helvetica;fontSize=15;align=center;" parent="U1rAl8_IukCjqVfFUBV3-1" vertex="1">
          <mxGeometry x="280" y="240" width="80" height="80" as="geometry" />
        </mxCell>
        <mxCell id="U1rAl8_IukCjqVfFUBV3-11" value="DB" style="shape=cylinder3;whiteSpace=wrap;html=1;boundedLbl=1;backgroundOutline=1;size=15;hachureGap=4;fontFamily=Helvetica;fontSize=15;align=center;" parent="U1rAl8_IukCjqVfFUBV3-1" vertex="1">
          <mxGeometry x="290" y="430" width="60" height="80" as="geometry" />
        </mxCell>
        <mxCell id="U1rAl8_IukCjqVfFUBV3-12" value="" style="endArrow=classic;startArrow=classic;html=1;rounded=0;hachureGap=4;fontFamily=Helvetica;fontSize=15;strokeWidth=3;exitX=0.5;exitY=0;exitDx=0;exitDy=0;exitPerimeter=0;align=center;" parent="U1rAl8_IukCjqVfFUBV3-1" source="U1rAl8_IukCjqVfFUBV3-11" edge="1">
          <mxGeometry width="100" height="100" relative="1" as="geometry">
            <mxPoint x="320" y="400" as="sourcePoint" />
            <mxPoint x="319.5" y="320" as="targetPoint" />
          </mxGeometry>
        </mxCell>
        <mxCell id="U1rAl8_IukCjqVfFUBV3-13" value="" style="endArrow=classic;startArrow=classic;html=1;rounded=0;hachureGap=4;fontFamily=Helvetica;fontSize=15;strokeWidth=3;align=center;" parent="U1rAl8_IukCjqVfFUBV3-1" edge="1">
          <mxGeometry width="100" height="100" relative="1" as="geometry">
            <mxPoint x="320" y="240" as="sourcePoint" />
            <mxPoint x="319.5" y="160" as="targetPoint" />
          </mxGeometry>
        </mxCell>
        <mxCell id="U1rAl8_IukCjqVfFUBV3-14" value="Data Sharing with&lt;br&gt;&lt;div&gt;3rd Party Applications&lt;/div&gt;" style="text;strokeColor=none;fillColor=none;html=1;fontSize=15;fontStyle=0;verticalAlign=middle;align=left;fontFamily=Helvetica;" parent="U1rAl8_IukCjqVfFUBV3-1" vertex="1">
          <mxGeometry x="543" y="50" width="167" height="100" as="geometry" />
        </mxCell>
        <mxCell id="U1rAl8_IukCjqVfFUBV3-15" value="" style="endArrow=classic;startArrow=classic;html=1;rounded=0;hachureGap=4;fontFamily=Helvetica;fontSize=15;strokeWidth=3;align=center;" parent="U1rAl8_IukCjqVfFUBV3-1" edge="1">
          <mxGeometry width="100" height="100" relative="1" as="geometry">
            <mxPoint x="200.5" y="118" as="sourcePoint" />
            <mxPoint x="280" y="118" as="targetPoint" />
          </mxGeometry>
        </mxCell>
        <mxCell id="QCub0E5qJPQFH9ZA22CE-4" value="Camera Trap" style="rounded=1;whiteSpace=wrap;hachureGap=4;fontFamily=Helvetica;fontSize=12;verticalAlign=middle;" vertex="1" parent="U1rAl8_IukCjqVfFUBV3-1">
          <mxGeometry x="750" y="140" width="190" height="39" as="geometry" />
        </mxCell>
        <mxCell id="QCub0E5qJPQFH9ZA22CE-5" value="iNaturalist" style="rounded=1;whiteSpace=wrap;hachureGap=4;fontFamily=Helvetica;fontSize=12;verticalAlign=middle;" vertex="1" parent="U1rAl8_IukCjqVfFUBV3-1">
          <mxGeometry x="750" y="190" width="190" height="39" as="geometry" />
        </mxCell>
        <mxCell id="QCub0E5qJPQFH9ZA22CE-6" value="GBIF / Camera Trap" style="rounded=1;whiteSpace=wrap;hachureGap=4;fontFamily=Helvetica;fontSize=12;verticalAlign=middle;" vertex="1" parent="U1rAl8_IukCjqVfFUBV3-1">
          <mxGeometry x="750" y="290" width="190" height="39" as="geometry" />
        </mxCell>
        <mxCell id="QCub0E5qJPQFH9ZA22CE-7" value="ML Sites (Roboflow, Tensor Flow)" style="rounded=1;whiteSpace=wrap;hachureGap=4;fontFamily=Helvetica;fontSize=12;verticalAlign=middle;" vertex="1" parent="U1rAl8_IukCjqVfFUBV3-1">
          <mxGeometry x="750" y="240" width="190" height="39" as="geometry" />
        </mxCell>
        <mxCell id="QCub0E5qJPQFH9ZA22CE-9" value="&lt;p style=&quot;font-size: 18px;&quot;&gt;3rd Party Applications&lt;/p&gt;" style="text;html=1;strokeColor=none;fillColor=none;align=center;verticalAlign=middle;whiteSpace=wrap;rounded=0;fontSize=20;fontFamily=Helvetica;" vertex="1" parent="U1rAl8_IukCjqVfFUBV3-1">
          <mxGeometry x="730" y="90" width="230" height="30" as="geometry" />
        </mxCell>
        <mxCell id="QCub0E5qJPQFH9ZA22CE-11" value="" style="endArrow=none;startArrow=none;html=1;rounded=0;hachureGap=4;fontFamily=Helvetica;fontSize=15;strokeWidth=3;align=center;endFill=0;startFill=0;" edge="1" parent="U1rAl8_IukCjqVfFUBV3-1">
          <mxGeometry width="100" height="100" relative="1" as="geometry">
            <mxPoint x="670" y="320" as="sourcePoint" />
            <mxPoint x="670" y="120" as="targetPoint" />
          </mxGeometry>
        </mxCell>
        <mxCell id="QCub0E5qJPQFH9ZA22CE-12" value="" style="endArrow=classic;startArrow=none;html=1;rounded=0;hachureGap=4;fontFamily=Helvetica;fontSize=15;strokeWidth=3;align=center;startFill=0;" edge="1" parent="U1rAl8_IukCjqVfFUBV3-1">
          <mxGeometry width="100" height="100" relative="1" as="geometry">
            <mxPoint x="670" y="160" as="sourcePoint" />
            <mxPoint x="750" y="160" as="targetPoint" />
          </mxGeometry>
        </mxCell>
        <mxCell id="QCub0E5qJPQFH9ZA22CE-13" value="" style="endArrow=classic;startArrow=none;html=1;rounded=0;hachureGap=4;fontFamily=Helvetica;fontSize=15;strokeWidth=3;align=center;startFill=0;" edge="1" parent="U1rAl8_IukCjqVfFUBV3-1">
          <mxGeometry width="100" height="100" relative="1" as="geometry">
            <mxPoint x="670" y="210" as="sourcePoint" />
            <mxPoint x="750" y="210" as="targetPoint" />
          </mxGeometry>
        </mxCell>
        <mxCell id="QCub0E5qJPQFH9ZA22CE-14" value="" style="endArrow=classic;startArrow=none;html=1;rounded=0;hachureGap=4;fontFamily=Helvetica;fontSize=15;strokeWidth=3;align=center;startFill=0;" edge="1" parent="U1rAl8_IukCjqVfFUBV3-1">
          <mxGeometry width="100" height="100" relative="1" as="geometry">
            <mxPoint x="670" y="260" as="sourcePoint" />
            <mxPoint x="750" y="260" as="targetPoint" />
          </mxGeometry>
        </mxCell>
        <mxCell id="QCub0E5qJPQFH9ZA22CE-15" value="" style="endArrow=classic;startArrow=none;html=1;rounded=0;hachureGap=4;fontFamily=Helvetica;fontSize=15;strokeWidth=3;align=center;startFill=0;" edge="1" parent="U1rAl8_IukCjqVfFUBV3-1">
          <mxGeometry width="100" height="100" relative="1" as="geometry">
            <mxPoint x="670" y="320" as="sourcePoint" />
            <mxPoint x="750" y="320" as="targetPoint" />
          </mxGeometry>
        </mxCell>
      </root>
    </mxGraphModel>
  </diagram>
</mxfile>
